<svg width="123" height="49" viewBox="0 0 123 49" fill="none" xmlns="http://www.w3.org/2000/svg">
<path d="M97.6396 35.7375V19.3524H100.936V21.6638C101.912 19.9589 103.805 18.927 106.157 18.927C106.999 18.9051 107.837 19.0497 108.622 19.3521C109.408 19.6546 110.126 20.109 110.735 20.6891C111.986 21.875 112.628 23.5468 112.628 25.7676V35.7254H109.238V26.7091C109.238 23.6916 107.65 22.0289 105.299 22.0289C102.763 22.0289 100.994 23.9722 100.994 26.7694V35.7375H97.6396Z" fill="black"/>
<path d="M94.9524 28.8357H82.0999C82.5876 31.3915 84.3904 33.1235 87.5536 33.1235C89.5472 33.0881 91.4874 32.4759 93.1375 31.3613L94.5433 33.8236C92.4663 35.2898 89.9873 36.0851 87.4414 36.1018C81.2757 36.1018 78.6216 31.817 78.6216 27.4988C78.6216 25.0366 79.3821 22.9998 80.9394 21.3884C82.4968 19.777 84.5419 18.9563 86.9991 18.9563C89.3503 18.9563 91.3045 19.6865 92.7982 21.1742C94.2919 22.6618 95.0584 24.6715 95.0584 27.2092C95.0637 27.7533 95.0283 28.2969 94.9524 28.8357ZM82.0999 26.1017H91.6832C91.4105 23.5157 89.4865 21.838 87.0142 21.838C84.4813 21.838 82.5937 23.546 82.0999 26.1017Z" fill="black"/>
<path d="M72.5741 12.6926H75.9614V35.7374H72.6286V33.4592C71.985 34.3073 71.1491 34.9917 70.1892 35.4563C69.2292 35.9211 68.1724 36.1528 67.1052 36.1326C66.004 36.1604 64.9093 35.9553 63.8936 35.5308C62.8779 35.1065 61.9638 34.4723 61.2122 33.6704C59.6516 32.0089 58.8074 29.8043 58.8611 27.5298C58.8078 25.2733 59.6529 23.0875 61.2122 21.4495C61.9519 20.6385 62.8586 19.996 63.8703 19.5659C64.8821 19.1358 65.9751 18.928 67.0749 18.957C69.2413 18.957 71.0713 19.8382 72.5679 21.6335L72.5741 12.6926ZM71.3531 23.6493C70.858 23.1394 70.2651 22.734 69.6095 22.4571C68.9539 22.1801 68.249 22.0374 67.537 22.0374C66.8248 22.0374 66.12 22.1801 65.4644 22.4571C64.8088 22.734 64.2159 23.1394 63.7209 23.6493C62.7432 24.7066 62.2181 26.102 62.2574 27.5388C62.2176 28.9957 62.7415 30.412 63.7209 31.4948C64.2209 31.9958 64.8156 32.3933 65.4705 32.6647C66.1253 32.9359 66.8276 33.0755 67.537 33.0755C68.2462 33.0755 68.9485 32.9359 69.6035 32.6647C70.2584 32.3933 70.8529 31.9958 71.3531 31.4948C72.3336 30.4137 72.8587 28.9982 72.8195 27.5418C72.8601 26.1033 72.3337 24.7061 71.3531 23.6493Z" fill="black"/>
<path d="M41.4668 35.7369V19.352H44.7632V21.6633C45.7419 19.9584 47.6324 18.9264 49.9837 18.9264C50.8259 18.9037 51.6642 19.0477 52.4501 19.3502C53.2361 19.6527 53.9538 20.1077 54.5617 20.6887C55.8161 21.8746 56.4553 23.5462 56.4553 25.7672V35.7249H53.068V26.7086C53.068 23.6911 51.4804 22.0285 49.1292 22.0285C46.5963 22.0285 44.8238 23.9717 44.8238 26.769V35.7369H41.4668Z" fill="black"/>
<path d="M33.9251 14.9132C33.9269 14.6152 33.9887 14.3206 34.1065 14.0466C34.2243 13.7727 34.396 13.5249 34.6114 13.318C34.8268 13.1111 35.0815 12.9492 35.3606 12.8417C35.6398 12.7343 35.9377 12.6835 36.2367 12.6924C36.5306 12.6891 36.822 12.7444 37.0939 12.8548C37.366 12.9653 37.6131 13.1288 37.8208 13.3357C38.0286 13.5426 38.1927 13.7887 38.3036 14.0595C38.4146 14.3305 38.4699 14.6207 38.4667 14.9132C38.4761 15.2103 38.4253 15.5061 38.3173 15.7831C38.2093 16.0602 38.0464 16.3127 37.8383 16.5256C37.6301 16.7385 37.381 16.9075 37.1058 17.0224C36.8307 17.1373 36.5351 17.1959 36.2367 17.1945C35.9329 17.2019 35.6308 17.148 35.3484 17.0363C35.066 16.9244 34.8092 16.7571 34.5933 16.5441C34.3773 16.331 34.207 16.0767 34.0921 15.7966C33.9772 15.5163 33.9204 15.2159 33.9251 14.9132ZM37.8638 35.734H34.5067V19.352H37.8638V35.734Z" fill="black"/>
<path d="M9.19881 35.7371L1.53638 13.2717H5.33276L10.4835 29.2917L16.1917 13.2717H18.0581L23.8814 29.2917L28.9654 13.2717H32.7497L25.1024 35.7371H22.7513L17.1673 19.6265L11.6106 35.7371H9.19881Z" fill="black"/>
</svg>
