<svg width="53" height="53" viewBox="0 0 53 53" fill="none" xmlns="http://www.w3.org/2000/svg">
<path d="M26.4775 26.4775C37.3248 26.4775 46.1204 31.3642 46.1204 37.3901C46.1204 43.4161 37.3248 48.3028 26.4775 48.3028C15.6303 48.3028 6.83472 43.4161 6.83472 37.3901C6.83472 31.3642 15.6303 26.4775 26.4775 26.4775ZM26.4775 26.4775C37.3248 26.4775 46.1204 21.5908 46.1204 15.5648C46.1204 9.5388 37.3248 4.6521 26.4775 4.6521C15.6303 4.6521 6.83472 9.5388 6.83472 15.5648C6.83472 21.5908 15.6303 26.4775 26.4775 26.4775ZM26.4775 38.4814C37.3248 38.4814 46.1204 33.5947 46.1204 27.5687C46.1204 21.5428 37.3248 16.6561 26.4775 16.6561C15.6303 16.6561 6.83472 21.5428 6.83472 27.5687C6.83472 33.5947 15.6303 38.4814 26.4775 38.4814Z" stroke="#FF360A" stroke-width="2"/>
</svg>
