<svg width="189" height="35" viewBox="0 0 189 35" fill="none" xmlns="http://www.w3.org/2000/svg">
<path d="M80.0545 14.0168C80.0545 10.1689 79.546 10.115 80.8262 13.8994L87.8486 33.3743H93.8291L100.813 13.8994C101.758 11.7985 101.758 11.5738 101.585 14.0168V33.3743H106.639V6H98.9608L91.6684 24.8101C91.1668 26.1788 91.2826 28.0168 91.2826 29.4637H90.4337C90.4337 28.0168 90.5109 26.1788 90.0093 24.8101L82.7169 6H75V33.3743H80.0545V14.0168Z" fill="white"/>
<path d="M122.384 34C128.441 34 131.297 29.8156 131.875 27.7821H126.474C126.088 28.7598 124.506 29.8939 121.921 29.8939C117.946 29.8939 116.017 27.1955 116.017 25.0447L132.261 25.0838C132.3 24.7318 132.3 23.7933 132.3 23.4022C132.338 18.0056 128.171 13.2346 121.458 13.2346C114.937 13.2346 110.345 17.6536 110.345 23.4804C110.345 29.3073 114.551 34 122.384 34ZM116.017 21.838C116.017 19.3743 118.294 17.0279 121.573 17.0279C124.814 17.0279 126.782 19.1397 126.782 21.838H116.017Z" fill="white"/>
<path d="M138.705 26.8045C138.705 29.933 139.939 33.3743 143.566 33.3743H148.235V28.9162H145.959C144.145 28.9162 143.412 28.4469 143.412 26.8045V18.0056H148.428V13.8212H143.412V6.43017H138.705V13.8212H134.846V18.0056H138.705V26.8045Z" fill="white"/>
<path d="M155.171 26.8045C155.171 29.933 156.406 33.3743 160.033 33.3743H164.701V28.9162H162.425C160.611 28.9162 159.878 28.4469 159.878 26.8045V18.0056H164.894V13.8212H159.878V6.43017H155.171V13.8212H151.312V18.0056H155.171V26.8045Z" fill="white"/>
<path d="M183.212 31.419C183.984 30.5196 184.138 28.9162 184.486 27.8212L185.334 28.095C184.987 29.1899 184.293 30.5978 184.293 31.7709L184.254 33.3743H189V13.8212H184.254L184.293 15.3073C184.293 16.4804 184.987 17.8492 185.334 18.9832L184.524 19.257C184.138 18.1229 183.984 16.5196 183.174 15.6592C181.785 14.1341 179.778 13.2346 177.193 13.2346C171.444 13.2346 167.393 17.6536 167.393 23.4804C167.393 29.3073 171.444 34 177.193 34C179.778 34 181.785 33.0223 183.212 31.419ZM172.139 23.4804C172.139 20.1564 174.261 17.6927 177.463 17.6927C180.974 17.6927 182.865 20.0391 182.865 23.4804C182.749 26.6872 180.627 29.5419 177.463 29.5419C174.261 29.5419 172.139 26.7654 172.139 23.4804Z" fill="white"/>
<path d="M18.6465 0C19.7132 0 20.7582 0.302203 21.6603 0.87161L39.7363 12.2811C41.7679 13.5634 43 15.7981 43 18.2005V26.1079C43 29.9143 39.9143 33 36.1079 33C34.8057 33 33.5302 32.6311 32.4291 31.9361L16.2636 21.7322C14.232 20.4499 13 18.2153 13 15.8128V5.64646C13 2.52801 15.528 0 18.6465 0Z" fill="#FF360A"/>
<path d="M42.6465 0C43.7132 0 44.7582 0.302203 45.6603 0.87161L63.7363 12.2811C65.7679 13.5634 67 15.7981 67 18.2005V26.1079C67 29.9143 63.9143 33 60.1079 33C58.8057 33 57.5302 32.6311 56.4291 31.9361L40.2636 21.7322C38.232 20.4499 37 18.2153 37 15.8128V5.64646C37 2.52801 39.528 0 42.6465 0Z" fill="#FF360A"/>
<rect y="19" width="13" height="14" fill="#FA957F"/>
</svg>
