<svg width="67" height="33" viewBox="0 0 67 33" fill="none" xmlns="http://www.w3.org/2000/svg">
<path d="M18.6465 0C19.7132 0 20.7582 0.302203 21.6603 0.87161L39.7363 12.2811C41.7679 13.5634 43 15.7981 43 18.2005V26.1079C43 29.9143 39.9143 33 36.1079 33C34.8057 33 33.5302 32.6311 32.4291 31.9361L16.2636 21.7322C14.232 20.4499 13 18.2153 13 15.8128V5.64646C13 2.52801 15.528 0 18.6465 0Z" fill="#FF360A"/>
<path d="M42.6465 0C43.7132 0 44.7582 0.302203 45.6603 0.87161L63.7363 12.2811C65.7679 13.5634 67 15.7981 67 18.2005V26.1079C67 29.9143 63.9143 33 60.1079 33C58.8057 33 57.5302 32.6311 56.4291 31.9361L40.2636 21.7322C38.232 20.4499 37 18.2153 37 15.8128V5.64646C37 2.52801 39.528 0 42.6465 0Z" fill="#FF360A"/>
<rect y="19" width="13" height="14" fill="#FA957F"/>
</svg>
