<svg width="165" height="25" viewBox="0 0 165 25" fill="none" xmlns="http://www.w3.org/2000/svg">
<path d="M24.9633 0.0734863V8.35784H16.679V24.9265H8.39467V8.35784H0.110352V0.0734863H24.9633ZM49.8161 0.0735576H33.2475V8.35784H49.8161V0.0735576Z" fill="black"/>
<path d="M49.8161 16.6422V24.9265H24.9631L24.9633 8.35785H33.2475V16.6422H49.8161ZM65.4734 5.87263H54.0963V9.15871H57.9071V19.4589H61.6626V9.15871H65.4734V5.87263ZM69.7536 9.04821C67.075 9.04821 65.0868 10.8432 65.0868 14.3778C65.0868 17.4982 66.7713 19.6798 69.8361 19.6798C71.438 19.6798 72.7358 19.2656 73.9789 18.52L72.6533 16.2832C71.6316 16.8079 70.9133 17.0012 70.002 17.0012C69.063 17.0012 68.4002 16.5042 68.2628 15.372H74.2551C74.2822 15.2062 74.2822 14.9853 74.2822 14.6816C74.3099 10.8984 72.57 9.04821 69.7536 9.04821ZM68.3176 13.1904C68.4279 12.1687 68.87 11.644 69.671 11.644C70.6926 11.644 71.0514 12.1687 71.2173 13.1904H68.3176ZM80.9373 16.8355C79.9983 16.8355 79.5014 16.0071 79.5014 14.3778C79.5014 12.7762 79.9435 11.8649 80.8547 11.8649C81.6001 11.8649 81.9319 12.2791 82.4288 13.1904L84.8309 11.3678C83.9474 9.93194 82.8432 9.04821 80.9096 9.04821C77.651 9.04821 76.0499 11.2022 76.0499 14.3226C76.0499 17.7468 77.8447 19.6522 80.827 19.6522C82.6218 19.6522 83.7267 18.9618 84.9142 17.2221L82.7051 15.4824C82.0422 16.4765 81.6001 16.8355 80.9373 16.8355ZM92.9776 9.04829C91.7623 9.04829 91.0447 9.46249 90.4089 9.93194V5.32031L86.9019 6.72866V19.4865H90.4089V13.6599C90.4089 12.3896 90.851 12.0306 91.5964 12.0306C92.3147 12.0306 92.7561 12.3896 92.7561 13.6875V19.4865H96.2631V13.2456C96.2631 10.5671 95.1867 9.04829 92.9776 9.04829ZM104.686 16.3937C103.056 16.3937 102.394 14.7368 102.394 12.6657C102.394 10.5118 103.084 8.93772 104.658 8.93772C105.901 8.93772 106.37 9.73858 106.84 11.0088L110.264 9.65571C109.325 7.08762 107.999 5.65165 104.658 5.65165C101.013 5.65165 98.4452 8.30261 98.4452 12.6657C98.4452 16.6974 100.599 19.6797 104.631 19.6797C107.861 19.6797 109.381 17.9401 110.292 16.1728L107.116 14.4882C106.37 15.7586 105.874 16.3937 104.686 16.3937ZM115.925 10.0147V9.26913H112.418V19.4589H115.925V13.9084C115.925 12.6658 116.45 12.2515 117.306 12.2515C117.996 12.2515 118.493 12.6105 118.935 13.1076L119.763 9.49011C119.349 9.24158 118.852 9.04821 118.107 9.04821C117.195 9.04821 116.505 9.43487 115.925 10.0147ZM127.247 15.0959C127.247 16.3661 126.805 16.7251 126.087 16.7251C125.369 16.7251 124.927 16.3661 124.927 15.0683V9.2692H121.42V15.5101C121.42 18.1887 122.497 19.6798 124.734 19.6798C125.922 19.6798 126.667 19.2656 127.274 18.7962V19.4865H130.782V9.29682H127.274L127.247 15.0959ZM139.369 9.04821C138.155 9.04821 137.436 9.46249 136.801 9.93194V9.24158H133.294V19.4313H136.801V13.6046C136.801 12.3344 137.243 11.9754 137.989 11.9754C138.707 11.9754 139.149 12.3344 139.149 13.6322V19.4313H142.656V13.1904C142.656 10.5671 141.606 9.04821 139.369 9.04821ZM149.615 16.8355C148.676 16.8355 148.179 16.0071 148.179 14.3778C148.179 12.7762 148.62 11.8649 149.504 11.8649C150.25 11.8649 150.581 12.2791 151.079 13.1904L153.481 11.3678C152.597 9.93194 151.492 9.04821 149.559 9.04821C146.301 9.04821 144.7 11.2022 144.7 14.3226C144.7 17.7468 146.494 19.6522 149.477 19.6522C151.271 19.6522 152.376 18.9618 153.563 17.2221L151.354 15.4824C150.747 16.4765 150.278 16.8355 149.615 16.8355ZM161.654 9.04829C160.44 9.04829 159.721 9.46249 159.086 9.93194V5.32031L155.579 6.72866V19.4865H159.086V13.6599C159.086 12.3896 159.528 12.0306 160.274 12.0306C160.991 12.0306 161.434 12.3896 161.434 13.6875V19.4865H164.941V13.2456C164.968 10.5671 163.891 9.04829 161.654 9.04829Z" fill="black"/>
</svg>
