<svg width="190" height="32" viewBox="0 0 190 32" fill="none" xmlns="http://www.w3.org/2000/svg">
<path d="M49.1153 7.10034H56.8955C61.0108 7.10034 63.6677 10.1996 63.6677 13.8012C63.6677 17.4028 61.0114 20.5014 56.8955 20.5014H53.415V25.6393H49.1132L49.1153 7.10034ZM59.3411 13.8012C59.3411 12.0794 58.1723 10.5964 56.3671 10.5964H53.415V17.0054H56.3627C58.1701 17.0054 59.3411 15.523 59.3411 13.8012Z" fill="#141518"/>
<path d="M80.1314 25.6393L79.4154 23.3889H72.8029L72.0857 25.6393H67.4913L74.1308 7.10034H78.0875L84.806 25.6393H80.1314ZM76.1216 12.3957L73.8377 20.0237H78.352L76.1216 12.3957Z" fill="#141518"/>
<path d="M92.0279 10.806H87.833V7.10034H100.549V10.806H96.3242V25.6369H92.0279V10.806Z" fill="#141518"/>
<path d="M107.245 7.10034H115.052C119.167 7.10034 121.823 10.1996 121.823 13.8012C121.823 16.3969 120.442 18.7003 118.132 19.7867L121.85 25.6429H116.857L113.564 20.5042H111.546V25.6429H107.245V7.10034ZM117.468 13.8012C117.468 12.0794 116.299 10.5964 114.494 10.5964H111.546V17.0054H114.494C116.298 17.0054 117.468 15.523 117.468 13.8012Z" fill="#141518"/>
<path d="M133.428 10.5439V14.7546H140.465V18.1186H133.428V22.1964H140.465V25.6393H129.126V7.10034H140.465V10.5439H133.428Z" fill="#141518"/>
<path d="M147.448 16.3708C147.448 11.2862 151.112 6.62451 157.3 6.62451C163.46 6.62451 167.124 11.2862 167.124 16.3708C167.124 21.4556 163.46 26.1166 157.3 26.1166C151.112 26.1166 147.448 21.4561 147.448 16.3708ZM162.744 16.3708C162.744 13.3253 160.672 10.4915 157.3 10.4915C153.902 10.4915 151.856 13.3253 151.856 16.3708C151.856 19.4163 153.902 22.2507 157.3 22.2507C160.672 22.2507 162.744 19.4163 162.744 16.3708Z" fill="#141518"/>
<path d="M185.476 19.1792V7.10034H189.75V25.6393H185.262L178.569 13.7213V25.6393H174.266V7.10034H178.754L185.476 19.1792Z" fill="#141518"/>
<path fill-rule="evenodd" clip-rule="evenodd" d="M21.7815 0.462891C15.2475 0.462891 9.92932 5.77138 9.92932 12.2927C9.92932 18.7959 15.2452 24.087 21.7815 24.087C28.2952 24.087 33.5941 18.7959 33.5941 12.2927C33.5941 5.77138 28.2952 0.462891 21.7815 0.462891Z" fill="#141518"/>
<path fill-rule="evenodd" clip-rule="evenodd" d="M0.68457 31.974H6.47021V0.462891H0.68457V31.974Z" fill="#141518"/>
</svg>
