<svg width="45" height="45" viewBox="0 0 45 45" fill="none" xmlns="http://www.w3.org/2000/svg">
<path d="M22.5964 31.4386C23.5549 31.4386 24.4741 31.0579 25.1519 30.3801C25.8297 29.7024 26.2104 28.7831 26.2104 27.8246C26.2104 26.8661 25.8297 25.9469 25.1519 25.2691C24.4741 24.5913 23.5549 24.2106 22.5964 24.2106C21.6379 24.2106 20.7187 24.5913 20.0409 25.2691C19.3631 25.9469 18.9824 26.8661 18.9824 27.8246C18.9824 28.7831 19.3631 29.7024 20.0409 30.3801C20.7187 31.0579 21.6379 31.4386 22.5964 31.4386ZM33.4385 15.1755C34.397 15.1755 35.3162 15.5563 35.994 16.234C36.6718 16.9118 37.0525 17.831 37.0525 18.7895V36.8597C37.0525 37.8182 36.6718 38.7374 35.994 39.4152C35.3162 40.093 34.397 40.4737 33.4385 40.4737H11.7543C10.7958 40.4737 9.87655 40.093 9.19878 39.4152C8.52102 38.7374 8.14026 37.8182 8.14026 36.8597V18.7895C8.14026 17.831 8.52102 16.9118 9.19878 16.234C9.87655 15.5563 10.7958 15.1755 11.7543 15.1755H13.5613V11.5615C13.5613 9.1652 14.5132 6.86709 16.2076 5.17268C17.902 3.47828 20.2001 2.52637 22.5964 2.52637C23.7829 2.52637 24.9578 2.76007 26.054 3.21412C27.1502 3.66818 28.1462 4.3337 28.9852 5.17268C29.8242 6.01167 30.4897 7.00769 30.9437 8.10388C31.3978 9.20006 31.6315 10.375 31.6315 11.5615V15.1755H33.4385ZM22.5964 6.1404C21.1586 6.1404 19.7798 6.71155 18.7631 7.72819C17.7465 8.74484 17.1753 10.1237 17.1753 11.5615V15.1755H28.0175V11.5615C28.0175 10.1237 27.4463 8.74484 26.4297 7.72819C25.413 6.71155 24.0342 6.1404 22.5964 6.1404Z" fill="#FF360A"/>
</svg>
