<svg width="146" height="30" viewBox="0 0 146 30" fill="none" xmlns="http://www.w3.org/2000/svg">
<path d="M0.75623 20.0768L2.58528 19.7849V2.87972L0.544189 2.6144L0.65021 0.783203H13.4267L13.1087 5.90515L10.564 5.82554L10.4049 2.6144H6.45535V10.2309H8.17831L8.57591 8.47941L10.3519 8.53246V13.7871H8.57591L8.15183 11.9825H6.42879V20.0503H10.4049L10.776 16.5472L13.4533 16.6268L13.6653 21.961H0.676695L0.75623 20.0768ZM14.8579 21.9876L14.9375 20.4218L16.3689 20.13V9.46137L14.699 9.30215V7.70986L18.8871 7.09946L19.2051 8.00174V8.61214C20.2125 7.55064 21.4318 6.91368 22.9957 6.91368C25.2754 6.91368 26.9719 8.2937 26.9719 11.0272V20.1034L28.4828 20.3953L28.4032 21.9611H23.4198V11.8234C23.4198 10.3637 22.8897 9.54098 21.5643 9.54098C21.1137 9.54098 20.7956 9.62059 20.451 9.75333C20.2389 9.93911 20.0269 10.2045 19.8413 10.4433V20.1564L21.3523 20.4484L21.2462 22.0141H14.8579V21.9876ZM94.9364 21.9876L94.99 20.4218L96.4214 20.13V9.46137L94.7511 9.30215V7.70986L98.9391 7.09946L99.2575 8.00174V8.61214C100.265 7.55064 101.484 6.91368 103.048 6.91368C105.328 6.91368 107.024 8.2937 107.024 11.0272V20.1034L108.535 20.3953L108.456 21.9611H103.498V11.8234C103.498 10.3637 102.969 9.54098 101.643 9.54098C101.193 9.54098 100.874 9.62059 100.53 9.75333C100.318 9.93911 100.106 10.2045 99.9197 10.4433V20.1564L101.431 20.4484L101.325 22.0141H94.9364V21.9876ZM36.382 21.6957C35.7988 21.9345 34.765 22.1999 33.4132 22.1999C31.6372 22.1999 29.9938 21.4037 29.9938 18.803V9.46137L28.2973 9.19598L28.3768 7.3383L30.2853 7.25868L31.107 4.41904L33.5457 4.31286V7.36478H36.1699L35.9844 9.22254L33.5722 9.48794V18.8295C33.5722 19.5991 33.9963 20.1033 34.7915 20.1033H36.223L36.382 21.6957ZM135.599 21.9876L135.652 20.4483L137.004 20.1298V9.4613L135.414 9.30208V7.70979L139.761 7.09939L140.052 8.1344V8.47941C141.192 7.63018 142.73 7.07282 144.585 7.07282L145.221 7.63018L144.77 11.664L142.385 11.5844L142.146 9.43481C141.59 9.51442 141.059 9.67364 140.609 9.99209V20.1564L142.119 20.4748L142.014 22.0141H135.599V21.9876ZM73.1743 21.9876L73.254 20.4483L74.6058 20.1298V9.4613L73.0151 9.30208V7.70979L77.3623 7.09939L77.654 8.1344V8.47941C78.7938 7.63018 80.3309 7.07282 82.1864 7.07282L82.8225 7.63018L82.3188 11.664L79.9336 11.5844L79.6948 9.43481C79.1383 9.51442 78.6078 9.67364 78.1577 9.99209V20.1564L79.6687 20.4748L79.5623 22.0141H73.1743V21.9876ZM37.4423 21.9876L37.5218 20.4483L38.8736 20.1298V9.4613L37.2832 9.30208V7.70979L41.6304 7.09939L41.922 8.1344V8.47941C43.0618 7.63018 44.5993 7.07282 46.4282 7.07282L47.0644 7.63018L46.6138 11.664L44.2281 11.5844L43.9895 9.43481C43.4329 9.51442 42.9028 9.67364 42.4521 9.99209V20.1564L43.9631 20.4748L43.857 22.0141H37.4423V21.9876ZM51.1729 15.4856C51.1729 18.0333 52.2863 19.9972 54.4864 19.9972C55.6262 19.9972 56.5275 19.7583 57.5877 19.2541L58.1974 20.6606C57.1106 21.5364 55.5201 22.1998 53.5321 22.1998C49.662 22.1998 47.4354 18.856 47.4354 14.5568C47.4354 10.8944 49.0524 6.88704 53.4791 6.88704C57.3491 6.88704 58.8071 10.4697 58.8071 14.4506L58.436 15.406L51.1729 15.4856ZM51.12 13.7871L55.5732 13.5748C55.4937 11.7967 55.1226 8.98363 53.373 8.98363C52.949 8.98363 52.6574 9.06324 52.1272 9.32864C51.4116 10.5494 51.12 12.7521 51.12 13.7871ZM112.776 15.4856C112.776 18.0333 113.889 19.9972 116.089 19.9972C117.229 19.9972 118.131 19.7583 119.191 19.2541L119.8 20.6606C118.714 21.5364 117.123 22.1998 115.135 22.1998C111.265 22.1998 109.038 18.856 109.038 14.5568C109.038 10.8944 110.656 6.88704 115.082 6.88704C118.952 6.88704 120.41 10.4697 120.41 14.4506L120.039 15.406L112.776 15.4856ZM112.723 13.7871L117.176 13.5748C117.096 11.7967 116.726 8.98363 114.976 8.98363C114.552 8.98363 114.26 9.06324 113.731 9.32864C113.015 10.5494 112.723 12.7521 112.723 13.7871ZM86.9049 15.4856C86.9049 18.0333 88.0187 19.9972 90.2187 19.9972C91.3585 19.9972 92.2595 19.7583 93.3197 19.2541L93.9297 20.6606C92.8428 21.5364 91.2521 22.1998 89.2641 22.1998C85.3938 22.1998 83.1678 18.856 83.1678 14.5568C83.1678 10.8944 84.7845 6.88704 89.2113 6.88704C93.0808 6.88704 94.5391 10.4697 94.5391 14.4506L94.1678 15.406L86.9049 15.4856ZM86.8521 13.7871L91.3049 13.5748C91.226 11.7967 90.8548 8.98363 89.1049 8.98363C88.6808 8.98363 88.3892 9.06324 87.8594 9.32864C87.1437 10.5494 86.8253 12.7521 86.8521 13.7871ZM130.43 21.9876L130.059 20.7137C129.078 21.6426 128.124 22.1998 126.64 22.1998C124.36 22.1998 122.319 21.0587 122.319 17.9006V9.08981L120.649 8.93058V7.524L125.473 6.96673L125.844 8.24058V17.476C125.844 19.0949 126.507 19.9441 127.806 19.9441C128.177 19.9441 128.654 19.891 129.078 19.7318C129.317 19.4929 129.555 19.201 129.741 18.9091V9.08981L128.018 8.93058V7.524L132.895 6.96673L133.267 8.24058V20.1299L134.777 20.4218L134.592 21.9876H130.43ZM66.0438 20.0768C65.2753 20.0768 64.6652 19.9442 64.1883 19.6788V10.3106C64.4003 9.99216 64.6392 9.70028 64.8772 9.43489C65.3281 9.27567 65.7254 9.22254 66.2031 9.22254C68.191 9.22254 68.5355 11.2395 68.5355 14.8487C68.5355 18.3253 68.005 19.2807 67.8726 19.6788C67.3161 19.9442 66.7328 20.0768 66.0438 20.0768ZM71.9817 14.2118C71.9817 9.72677 70.6559 6.91368 67.3429 6.91368C65.1429 6.91368 64.1087 8.18753 63.6846 8.71832V8.21409L63.3133 6.94024L58.9928 7.55064V9.08988L60.6628 9.30215V27.4015L59.2314 27.6934L59.1518 29.2061H65.5401L65.6458 27.6934L64.1355 27.4015V21.6691C64.7448 22.0141 65.593 22.2265 66.5207 22.2265C71.9281 22.2265 71.9817 16.733 71.9817 14.2118Z" fill="black"/>
</svg>
