<svg width="77" height="25" viewBox="0 0 77 25" fill="none" xmlns="http://www.w3.org/2000/svg">
<path d="M50.0782 0.125C44.7053 0.125 39.9036 2.93625 39.9036 8.13028C39.9036 14.0868 48.4194 14.4981 48.4194 17.4906C48.4194 18.7506 46.989 19.8784 44.5459 19.8784C41.0787 19.8784 38.4873 18.3024 38.4873 18.3024L37.3785 23.5438C37.3785 23.5438 40.3637 24.875 44.3271 24.875C50.2015 24.875 54.824 21.9257 54.824 16.6429C54.824 10.3487 46.2728 9.94962 46.2728 7.17215C46.2728 6.18512 47.447 5.10366 49.883 5.10366C52.6317 5.10366 54.8743 6.24982 54.8743 6.24982L55.9595 1.18759C55.9595 1.18759 53.5194 0.125 50.0782 0.125ZM0.920142 0.507058L0.790039 1.27116C0.790039 1.27116 3.05048 1.68877 5.08638 2.5218C7.70777 3.47704 7.89451 4.03313 8.33599 5.76031L13.1469 24.481H19.5958L29.5309 0.507058H23.0967L16.7128 16.8071L14.1078 2.99041C13.8689 1.4091 12.6588 0.507058 11.1775 0.507058H0.920142ZM32.1181 0.507058L27.0707 24.481H33.2063L38.2359 0.507058H32.1181ZM66.3382 0.507058C64.8586 0.507058 64.0747 1.30663 63.4995 2.70387L54.5105 24.481H60.9448L62.1896 20.8515H70.0283L70.7853 24.481H76.4624L71.5097 0.507058H66.3382ZM67.1749 6.98405L69.0821 15.9803H63.9726L67.1749 6.98405Z" fill="#141518"/>
</svg>
