<svg width="49" height="49" viewBox="0 0 49 49" fill="none" xmlns="http://www.w3.org/2000/svg">
<path d="M31.3289 31.6473H17.0586M17.0586 17.3771V31.6473M41.0586 17.3771H31.3289V7.64734C31.3289 5.75499 30.5771 3.94014 29.239 2.60204C27.9009 1.26394 26.0861 0.512207 24.1937 0.512207C22.3014 0.512207 20.4865 1.26394 19.1484 2.60204C17.8103 3.94014 17.0586 5.75499 17.0586 7.64734V17.3771H7.32886C5.43651 17.3771 3.62166 18.1288 2.28356 19.4669C0.945461 20.805 0.193726 22.6199 0.193726 24.5122C0.193726 26.4046 0.945461 28.2194 2.28356 29.5575C3.62166 30.8956 5.43651 31.6473 7.32886 31.6473H17.0586V41.3771C17.0586 43.2694 17.8103 45.0843 19.1484 46.4224C20.4865 47.7605 22.3014 48.5122 24.1937 48.5122C26.0861 48.5122 27.9009 47.7605 29.239 46.4224C30.5771 45.0843 31.3289 43.2694 31.3289 41.3771V31.6473H41.0586C42.9509 31.6473 44.7658 30.8956 46.1039 29.5575C47.442 28.2194 48.1937 26.4046 48.1937 24.5122C48.1937 22.6199 47.442 20.805 46.1039 19.4669C44.7658 18.1288 42.9509 17.3771 41.0586 17.3771V17.3771Z" stroke="#FF360A" stroke-width="3" stroke-linecap="round" stroke-linejoin="round"/>
</svg>
