<svg width="111" height="29" viewBox="0 0 111 29" fill="none" xmlns="http://www.w3.org/2000/svg">
<path d="M11.1543 2.6962H13.5604C15.0257 2.47839 16.5222 2.66989 17.8874 3.24966C19.5999 4.28879 20.8421 5.96168 21.3489 7.91156C21.7077 8.93329 21.7077 8.93328 22.5731 8.57143H23.2485V0.482295H0.600755V1.90856H1.52943C1.93304 1.90566 2.33209 1.99416 2.69736 2.16721C3.06263 2.34036 3.3848 2.59383 3.64013 2.90905C4.50548 4.31397 4.65325 5.88925 4.65325 14.0848C4.65325 22.7913 4.46331 24.9201 3.64013 26.0056C3.43692 26.2848 3.17382 26.514 2.87052 26.6762C2.56711 26.8383 2.23137 26.9293 1.88827 26.9423C0.600755 27.1765 0.600755 27.1552 0.600755 27.7299C0.529566 27.9221 0.529566 28.1337 0.600755 28.326H14.8902C14.9847 28.138 15.034 27.9301 15.034 27.7192C15.034 27.5085 14.9847 27.3006 14.8902 27.1126C14.5441 27.0155 14.1913 26.9443 13.8348 26.8997C13.4491 26.8535 13.0679 26.7751 12.695 26.6656C12.1611 26.2725 11.7381 25.7455 11.4678 25.1369C11.1976 24.5285 11.0895 23.8594 11.1543 23.1958C10.9432 21.7907 10.8376 19.2151 10.8376 17.0864V15.4047H11.6819C12.7338 15.3722 13.785 15.4868 14.8057 15.7453C15.2947 16.05 15.711 16.4599 16.0248 16.9455C16.3385 17.4313 16.542 17.9809 16.6209 18.5551L16.8108 19.2151H18.0984V9.78476H16.9164L16.7265 10.7002C16.6465 11.2874 16.4312 11.8476 16.0975 12.3355C15.7639 12.8236 15.3215 13.2259 14.8057 13.5101C14.3063 13.66 13.78 13.6963 13.265 13.6165H10.8376V11.3174C10.8376 8.93329 10.9642 3.90953 11.0487 3.12189L11.1543 2.6962ZM109.934 19.5769C108.937 17.9574 107.381 16.7671 105.566 16.2348C104.174 15.7961 102.888 15.0713 101.787 14.1062C101.54 13.8646 101.354 13.5658 101.248 13.2355C101.141 12.9053 101.116 12.5538 101.175 12.2115C101.177 11.5403 101.442 10.8973 101.914 10.4234C102.234 10.0859 102.638 9.84227 103.084 9.71854C103.53 9.59482 104.001 9.59564 104.447 9.72093C105.37 9.9862 106.204 10.4982 106.862 11.2027C107.52 11.9073 107.976 12.778 108.183 13.723C108.521 14.6809 108.562 14.6809 109.175 14.4254L109.555 14.2764V8.97587L109.28 8.84821C107.203 8.11207 104.999 7.80794 102.801 7.95415C100.908 8.00244 99.1015 8.76158 97.7347 10.0828C97.1151 10.6679 96.6301 11.3827 96.312 12.177C95.9949 12.9712 95.854 13.8257 95.8985 14.6808C95.911 15.9882 96.4249 17.2398 97.3337 18.172C98.3378 19.1683 99.5709 19.8993 100.922 20.3006C104.194 21.5993 105.144 22.4294 105.144 23.9408C105.157 24.5782 104.956 25.2014 104.573 25.7081C104.189 26.2149 103.646 26.575 103.033 26.7294C102.296 26.8927 101.533 26.8927 100.796 26.7294C99.83 26.3517 98.9689 25.7471 98.2829 24.9659C97.5959 24.1847 97.1047 23.2493 96.8488 22.2378L96.5742 21.5567H96.1939C96.0125 21.5702 95.8343 21.6133 95.6664 21.6843H95.455V27.7299H95.8146C97.2405 28.2083 98.7119 28.5365 100.204 28.7092H102.315C103.231 28.7769 104.151 28.6906 105.038 28.4537C106.164 28.2441 107.217 27.7408 108.091 26.9939C108.964 26.2471 109.63 25.2825 110.019 24.1963C110.271 23.5895 110.401 22.9382 110.4 22.2804C110.482 21.3538 110.322 20.4214 109.934 19.5769ZM90.0521 8.57143C88.7869 8.03591 87.4244 7.77602 86.053 7.80908C84.6816 7.84213 83.3327 8.1672 82.0947 8.76303C80.931 9.3371 79.8995 10.1509 79.067 11.1519C78.2345 12.1529 77.6193 13.3188 77.2612 14.5744C76.8046 15.9441 76.6113 17.389 76.6913 18.8319C76.6762 19.6168 76.7399 20.4014 76.8813 21.1735C77.2221 23.0718 78.1309 24.8197 79.4854 26.1819C80.8399 27.5442 82.5754 28.4558 84.4586 28.7943C85.685 28.9501 86.926 28.9501 88.1527 28.7943C89.4252 28.5681 90.6428 28.0984 91.7401 27.4107C92.6489 26.8973 93.4168 26.1661 93.9784 25.2819C93.9421 25.1432 93.8789 25.0132 93.7919 24.8998C93.7048 24.7864 93.595 24.6919 93.4717 24.622C93.2302 24.71 93.0033 24.8318 92.7961 24.9839C91.7464 25.6817 90.506 26.0314 89.2501 25.9844C88.4159 26.0413 87.5799 25.9103 86.8024 25.601C86.0248 25.2918 85.3251 24.8119 84.7542 24.1963C84.3124 23.7825 83.9479 23.2922 83.6777 22.7487C83.0218 21.4254 82.6684 19.9705 82.6435 18.4913V17.6611H94.3369V17.2354C94.3628 16.81 94.3628 16.3835 94.3369 15.9581C94.3328 14.4551 93.9338 12.9799 93.1815 11.6824C92.4292 10.385 91.3495 9.31172 90.0521 8.57143ZM84.1631 15.9368H82.6856V14.6808C83.1711 11.4665 84.3742 9.55067 85.8517 9.55067C87.3292 9.55067 87.962 11.4452 88.2366 14.915V15.8943H86.9704L84.1631 15.9368ZM53.8114 7.86897C53.0821 7.84048 52.357 7.99394 51.7007 8.316C50.2741 9.01473 49.1219 10.1768 48.4291 11.6155L48.1547 12.1264V7.86897H48.0492C47.7959 7.86897 39.9863 9.44425 39.733 9.55067C39.4798 9.65709 39.5642 9.67834 39.5642 10.0615C39.5642 10.4447 39.5642 10.5086 39.733 10.5298L40.5562 10.7002C40.7868 10.7059 41.013 10.7644 41.2177 10.8714C41.4226 10.9783 41.6005 11.1309 41.7382 11.3174C42.2659 12.0199 42.3714 13.2546 42.3714 18.5125C42.4756 20.8796 42.3767 23.2513 42.0759 25.6012C42.0051 25.9556 41.8269 26.279 41.566 26.5268C41.3052 26.7746 40.9744 26.9347 40.6195 26.9849L39.9019 27.1339H39.6275V27.7299C39.5509 27.9285 39.5509 28.1488 39.6275 28.3473H51.4263V27.7299C51.4672 27.5262 51.4672 27.3164 51.4263 27.1126C50.7159 27.0847 50.0094 26.992 49.3156 26.8358C48.9378 26.6366 48.6286 26.3264 48.429 25.9465C48.2293 25.5665 48.1484 25.1344 48.197 24.7071C48.028 23.4724 47.9436 19.8536 47.9859 17.0864C48.028 14.319 47.9859 14.1486 48.218 13.9571C48.9243 13.4109 49.7983 13.1322 50.6875 13.1695C51.5257 13.188 52.3487 13.399 53.0938 13.7868C53.352 13.9314 53.6291 14.0389 53.9168 14.1062C53.9168 14.1062 56.0275 8.95463 56.0275 8.72044C55.7575 8.40387 55.4134 8.16026 55.0264 8.01156C54.6394 7.86286 54.2218 7.81384 53.8114 7.86897ZM39.5852 16.8096C39.5116 15.2884 39.0785 13.807 38.3223 12.4888C37.5659 11.1706 36.5083 10.0538 35.2372 9.23131C33.7268 8.40957 32.0463 7.95643 30.3309 7.90835C28.6153 7.86027 26.9125 8.2186 25.3592 8.95463C23.163 10.1226 21.5048 12.1081 20.7368 14.4893C19.9435 17.1553 19.9435 19.9975 20.7368 22.6636C21.1527 24.1206 21.9299 25.4467 22.9952 26.5166C24.322 27.8222 26.0328 28.6588 27.871 28.9008C29.0508 29.0002 30.237 29.0002 31.4168 28.9008C31.8511 28.8341 32.2811 28.7417 32.7045 28.624C34.4224 28.1393 35.9681 27.1712 37.1605 25.8329C38.3529 24.4946 39.1427 22.8415 39.4375 21.067C39.6482 19.6583 39.6978 18.2297 39.5852 16.8096ZM30.8047 27.4532C28.6941 28.0918 27.1111 26.027 26.5834 21.6843C26.3897 19.4108 26.3897 17.1247 26.5834 14.8512C27.0055 11.36 28.082 9.59326 29.7494 9.59326C30.0859 9.57223 30.4224 9.63274 30.7309 9.76973C31.0392 9.90683 31.3107 10.1164 31.5224 10.3808C32.9366 11.8071 33.6331 14.6383 33.6331 18.8957C33.8088 21.3052 33.4332 23.7231 32.5356 25.9631C32.1392 26.6164 31.5259 27.1066 30.8047 27.3467V27.4532ZM68.7973 8.29465C68.2017 8.21735 67.5987 8.21735 67.0032 8.29465C65.8599 8.29372 64.7298 8.54055 63.6894 9.01846L63.0351 9.29524V4.67582C63.1495 3.11691 63.1495 1.55158 63.0351 -0.00732422C62.7818 -0.00732422 54.719 1.54661 54.5924 1.61055C54.5301 1.76764 54.5301 1.94297 54.5924 2.10006C54.5924 2.54709 54.5924 2.52585 55.5422 2.73869C55.8088 2.799 56.065 2.89951 56.3019 3.03671C56.714 3.42747 56.9882 3.94321 57.083 4.50557C57.3233 6.12562 57.4011 7.76587 57.3152 9.40166V28.0918L57.885 28.2195C58.7293 28.4111 61.1144 28.8156 61.8953 28.9008C63.4547 29.0258 65.0216 29.0258 66.5811 28.9008C68.312 28.7224 69.9619 28.0711 71.3529 27.0171C72.7439 25.963 73.8235 24.5461 74.4751 22.919C74.8635 21.8747 75.1327 20.7891 75.2771 19.6834C75.4028 18.1855 75.3532 16.678 75.1293 15.1917C74.9029 13.5259 74.1739 11.9705 73.0411 10.7367C71.9084 9.5029 70.4268 8.65039 68.7973 8.29465ZM63.2673 27.0913C63.2673 26.8146 63.0562 17.4908 63.0984 13.7655V10.8492L63.7105 10.7002C64.1235 10.6405 64.5429 10.6405 64.9558 10.7002C65.4126 10.6533 65.872 10.758 66.2645 10.9982C67.0527 11.5469 67.7072 12.2687 68.1789 13.1093C68.6505 13.95 68.9269 14.8877 68.9873 15.8517C69.1411 17.4018 69.1411 18.9635 68.9873 20.5136C68.861 22.7665 68.0002 24.9143 66.5389 26.623C66.1241 27.0203 65.6032 27.2867 65.0403 27.3893C64.6143 27.464 64.1788 27.464 63.7528 27.3893C63.3517 27.3893 63.3517 27.2616 63.3517 27.0913H63.2673Z" fill="black"/>
</svg>
